<?xml version="1.0" encoding="utf-8"?>
<!-- Generator: Adobe Illustrator 22.1.0, SVG Export Plug-In . SVG Version: 6.00 Build 0)  -->
<svg version="1.1" id="Layer_1" xmlns="http://www.w3.org/2000/svg" xmlns:xlink="http://www.w3.org/1999/xlink" x="0px" y="0px"
	 viewBox="0 0 231 67" style="enable-background:new 0 0 231 67;" xml:space="preserve">
<style type="text/css">
	.st0{fill:#333333;}
</style>
<g>
	<path class="st0" d="M16.4,21.3c0,2.1-0.6,3.7-1.8,4.8c-1.2,1.1-2.9,1.7-5.2,1.7H5.8V15.1h4c2.1,0,3.7,0.5,4.8,1.6
		C15.8,17.8,16.4,19.4,16.4,21.3z M13.6,21.4c0-2.7-1.2-4.1-3.6-4.1H8.6v8.3h1.2C12.3,25.6,13.6,24.2,13.6,21.4z"/>
	<path class="st0" d="M18.7,15.6c0-0.9,0.5-1.3,1.4-1.3s1.4,0.4,1.4,1.3c0,0.4-0.1,0.7-0.4,1s-0.6,0.3-1.1,0.3
		C19.2,16.9,18.7,16.5,18.7,15.6z M21.4,27.8h-2.6v-9.7h2.6V27.8z"/>
	<path class="st0" d="M29.6,20.1h-2.3v7.7h-2.6v-7.7h-1.5v-1.3l1.5-0.7v-0.7c0-1.1,0.3-1.9,0.8-2.4s1.4-0.8,2.6-0.8
		c0.9,0,1.7,0.1,2.4,0.4l-0.7,1.9c-0.5-0.2-1-0.3-1.5-0.3c-0.4,0-0.6,0.1-0.8,0.3c-0.2,0.2-0.3,0.5-0.3,0.9V18h2.3L29.6,20.1
		L29.6,20.1z"/>
	<path class="st0" d="M38,27.8l-0.4-1.2h-0.1c-0.3,0.5-0.7,0.8-1.2,1S35.2,28,34.5,28c-1.1,0-2-0.3-2.6-0.9S31,25.6,31,24.5v-6.3
		h2.6v5.7c0,0.7,0.1,1.2,0.4,1.6c0.2,0.4,0.6,0.5,1.2,0.5c0.7,0,1.3-0.2,1.6-0.7c0.3-0.5,0.5-1.3,0.5-2.5v-4.6H40v9.7h-2V27.8z"/>
	<path class="st0" d="M49.5,24.9c0,1-0.3,1.8-1,2.3S46.8,28,45.4,28c-0.7,0-1.3,0-1.8-0.1s-1-0.2-1.4-0.4v-2.2
		c0.5,0.2,1,0.4,1.7,0.6s1.2,0.2,1.6,0.2c1,0,1.4-0.3,1.4-0.8c0-0.2-0.1-0.4-0.2-0.5s-0.3-0.3-0.7-0.4c-0.3-0.2-0.7-0.4-1.3-0.6
		c-0.7-0.3-1.3-0.6-1.6-0.9c-0.4-0.3-0.6-0.6-0.8-0.9s-0.2-0.8-0.2-1.3c0-0.9,0.3-1.5,1-2s1.6-0.7,2.8-0.7c1.2,0,2.3,0.3,3.4,0.8
		l-0.8,1.9c-0.5-0.2-0.9-0.4-1.4-0.5S46.2,20,45.8,20c-0.8,0-1.2,0.2-1.2,0.6c0,0.2,0.1,0.4,0.4,0.6s0.8,0.4,1.7,0.8
		c0.8,0.3,1.3,0.6,1.7,0.9c0.4,0.3,0.6,0.6,0.8,0.9C49.5,24,49.5,24.4,49.5,24.9z"/>
	<path class="st0" d="M51.5,15.6c0-0.9,0.5-1.3,1.4-1.3s1.4,0.4,1.4,1.3c0,0.4-0.1,0.7-0.4,1s-0.6,0.3-1.1,0.3
		C52,16.9,51.5,16.5,51.5,15.6z M54.3,27.8h-2.6v-9.7h2.6V27.8z"/>
	<path class="st0" d="M65.9,22.9c0,1.6-0.4,2.8-1.3,3.7c-0.8,0.9-2,1.3-3.5,1.3c-0.9,0-1.8-0.2-2.5-0.6s-1.3-1-1.6-1.8
		c-0.4-0.8-0.6-1.7-0.6-2.7c0-1.6,0.4-2.8,1.2-3.7c0.8-0.9,2-1.3,3.5-1.3c0.9,0,1.8,0.2,2.5,0.6s1.3,1,1.6,1.7
		C65.7,21,65.9,21.9,65.9,22.9z M59.1,22.9c0,1,0.2,1.7,0.5,2.2s0.8,0.7,1.5,0.7s1.2-0.2,1.5-0.7s0.5-1.2,0.5-2.2s-0.2-1.7-0.5-2.2
		S61.8,20,61.1,20s-1.2,0.2-1.5,0.7S59.1,22,59.1,22.9z M59.7,17v-0.2c1-1.2,1.7-2,2-2.6h3v0.2c-0.3,0.3-0.8,0.7-1.5,1.3
		s-1.3,1-1.7,1.3C61.5,17,59.7,17,59.7,17z"/>
	<path class="st0" d="M77,27.8h-2.6v-5.7c0-0.7-0.1-1.2-0.4-1.6c-0.2-0.4-0.6-0.5-1.2-0.5c-0.7,0-1.3,0.2-1.6,0.7s-0.5,1.3-0.5,2.5
		v4.6H68v-9.7h2l0.4,1.2h0.1c0.3-0.5,0.7-0.8,1.2-1.1c0.5-0.2,1.1-0.4,1.8-0.4c1.1,0,2,0.3,2.6,0.9s0.9,1.5,0.9,2.6V27.8z"/>
	<path class="st0" d="M89.9,17.2c-1,0-1.8,0.4-2.4,1.1c-0.6,0.8-0.8,1.8-0.8,3.2c0,2.8,1.1,4.2,3.2,4.2c0.9,0,2-0.2,3.2-0.7v2.3
		c-1,0.4-2.2,0.7-3.5,0.7c-1.8,0-3.3-0.6-4.2-1.7c-1-1.1-1.5-2.7-1.5-4.8c0-1.3,0.2-2.5,0.7-3.5s1.2-1.8,2.1-2.3
		c0.9-0.5,2-0.8,3.2-0.8s2.5,0.3,3.7,0.9L92.7,18c-0.5-0.2-1-0.4-1.4-0.6C90.9,17.3,90.4,17.2,89.9,17.2z"/>
	<path class="st0" d="M102.5,27.8l-0.4-1.2H102c-0.3,0.5-0.7,0.8-1.2,1S99.7,28,99,28c-1.1,0-2-0.3-2.6-0.9s-0.9-1.5-0.9-2.6v-6.3
		h2.6v5.7c0,0.7,0.1,1.2,0.4,1.6c0.2,0.4,0.6,0.5,1.2,0.5c0.7,0,1.3-0.2,1.6-0.7s0.5-1.3,0.5-2.5v-4.6h2.6v9.7L102.5,27.8
		L102.5,27.8z"/>
	<path class="st0" d="M110,27.8h-2.6V14.3h2.6V27.8z"/>
	<path class="st0" d="M116.9,25.9c0.5,0,1-0.1,1.7-0.3v2c-0.7,0.3-1.5,0.4-2.4,0.4c-1.1,0-1.8-0.3-2.3-0.8s-0.7-1.3-0.7-2.4v-4.7
		h-1.3V19l1.5-0.9l0.8-2h1.7v2.1h2.7v2h-2.7v4.7c0,0.4,0.1,0.7,0.3,0.8C116.2,25.8,116.5,25.9,116.9,25.9z"/>
	<path class="st0" d="M127.4,27.8l-0.4-1.2h-0.1c-0.3,0.5-0.7,0.8-1.2,1s-1.1,0.4-1.8,0.4c-1.1,0-2-0.3-2.6-0.9s-0.9-1.5-0.9-2.6
		v-6.3h2.6v5.7c0,0.7,0.1,1.2,0.4,1.6c0.2,0.4,0.6,0.5,1.2,0.5c0.7,0,1.3-0.2,1.6-0.7s0.5-1.3,0.5-2.5v-4.6h2.6v9.7L127.4,27.8
		L127.4,27.8z"/>
	<path class="st0" d="M137.6,17.9c0.4,0,0.7,0,0.9,0.1l-0.2,2.5c-0.2-0.1-0.5-0.1-0.8-0.1c-0.8,0-1.5,0.2-2,0.7s-0.7,1-0.7,1.8v4.9
		h-2.6v-9.7h2l0.4,1.6h0.1c0.3-0.5,0.7-1,1.2-1.3S137,17.9,137.6,17.9z"/>
	<path class="st0" d="M146.4,27.8l-0.5-1.3h-0.1c-0.4,0.6-0.9,1-1.4,1.2s-1.1,0.3-1.8,0.3c-0.9,0-1.7-0.3-2.2-0.8s-0.8-1.3-0.8-2.3
		s0.4-1.8,1.1-2.3c0.7-0.5,1.8-0.8,3.3-0.8l1.7-0.1v-0.4c0-1-0.5-1.5-1.5-1.5c-0.8,0-1.7,0.2-2.7,0.7l-0.9-1.8
		c1.1-0.6,2.4-0.9,3.7-0.9s2.3,0.3,3,0.9s1,1.4,1,2.6v6.5C148.3,27.8,146.4,27.8,146.4,27.8z M145.6,23.3h-1c-0.8,0-1.3,0.2-1.7,0.4
		c-0.4,0.3-0.6,0.6-0.6,1.2c0,0.7,0.4,1.1,1.3,1.1c0.6,0,1.1-0.2,1.5-0.5c0.4-0.4,0.6-0.8,0.6-1.4v-0.8H145.6z"/>
	<path class="st0" d="M153.6,27.8H151V14.3h2.6V27.8z"/>
	<path class="st0" d="M4.2,39h2.9l1.8,5.5c0.2,0.5,0.3,1,0.3,1.7h0.1c0.1-0.6,0.2-1.2,0.4-1.7l1.8-5.5h2.8l-4.1,11
		c-0.4,1-0.9,1.8-1.6,2.3s-1.5,0.8-2.4,0.8c-0.5,0-0.9,0-1.3-0.1v-2.1C5.2,51,5.6,51,5.9,51c0.5,0,0.9-0.1,1.2-0.4s0.6-0.7,0.8-1.3
		l0.2-0.5L4.2,39z"/>
	<path class="st0" d="M27.9,48.7h-7.3V36h7.3v2.2h-4.6V41h4.3v2.2h-4.3v3.3h4.6V48.7z"/>
	<path class="st0" d="M32.3,43.8L29.2,39h3l1.9,3.1L36,39h3l-3.2,4.7l3.3,5h-3l-2-3.3l-2,3.3h-3L32.3,43.8z"/>
	<path class="st0" d="M44.7,46.8c0.5,0,1-0.1,1.7-0.3v2c-0.7,0.3-1.5,0.4-2.4,0.4c-1.1,0-1.8-0.3-2.3-0.8S41,46.8,41,45.7V41h-1.3
		v-1.1l1.5-0.9l0.8-2h1.7v2h2.7v2h-2.7v4.7c0,0.4,0.1,0.7,0.3,0.8C44.1,46.7,44.3,46.8,44.7,46.8z"/>
	<path class="st0" d="M52.7,48.9c-1.6,0-2.8-0.4-3.7-1.3c-0.9-0.9-1.3-2.1-1.3-3.7c0-1.6,0.4-2.9,1.2-3.8c0.8-0.9,1.9-1.3,3.4-1.3
		c1.4,0,2.4,0.4,3.2,1.2c0.8,0.8,1.1,1.9,1.1,3.2v1.3h-6.3c0,0.8,0.3,1.3,0.7,1.8s1,0.6,1.8,0.6c0.6,0,1.1-0.1,1.7-0.2
		c0.5-0.1,1.1-0.3,1.6-0.6v2c-0.5,0.2-1,0.4-1.5,0.5C54.1,48.8,53.5,48.9,52.7,48.9z M52.3,40.7c-0.6,0-1,0.2-1.3,0.5
		c-0.3,0.4-0.5,0.9-0.5,1.5h3.7c0-0.7-0.2-1.2-0.5-1.5C53.3,40.9,52.9,40.7,52.3,40.7z"/>
	<path class="st0" d="M67.8,48.7h-2.6V43c0-0.7-0.1-1.2-0.4-1.6c-0.2-0.4-0.6-0.5-1.2-0.5c-0.7,0-1.3,0.2-1.6,0.7
		c-0.3,0.5-0.5,1.3-0.5,2.5v4.6h-2.6V39h2l0.4,1.2h0.1c0.3-0.5,0.7-0.8,1.2-1.1c0.5-0.2,1.1-0.4,1.8-0.4c1.1,0,2,0.3,2.6,0.9
		s0.9,1.5,0.9,2.6v6.5H67.8z"/>
	<path class="st0" d="M77.3,45.8c0,1-0.3,1.8-1,2.3s-1.7,0.8-3.1,0.8c-0.7,0-1.3,0-1.8-0.1s-1-0.2-1.4-0.4v-2.2
		c0.5,0.2,1,0.4,1.7,0.6s1.2,0.2,1.6,0.2c1,0,1.4-0.3,1.4-0.8c0-0.2-0.1-0.4-0.2-0.5s-0.3-0.3-0.7-0.4c-0.3-0.2-0.7-0.4-1.3-0.6
		c-0.7-0.3-1.3-0.6-1.6-0.9c-0.4-0.3-0.6-0.6-0.8-0.9s-0.2-0.8-0.2-1.3c0-0.9,0.3-1.5,1-2s1.6-0.7,2.8-0.7s2.3,0.3,3.4,0.8l-0.8,1.9
		c-0.5-0.2-0.9-0.4-1.4-0.5s-0.9-0.2-1.3-0.2c-0.8,0-1.2,0.2-1.2,0.6c0,0.2,0.1,0.4,0.4,0.6c0.3,0.2,0.8,0.4,1.7,0.8
		c0.8,0.3,1.3,0.6,1.7,0.9c0.4,0.3,0.6,0.6,0.8,0.9C77.2,44.9,77.3,45.4,77.3,45.8z"/>
	<path class="st0" d="M79.2,36.5c0-0.9,0.5-1.3,1.4-1.3s1.4,0.4,1.4,1.3c0,0.4-0.1,0.7-0.4,1s-0.6,0.3-1.1,0.3
		C79.7,37.8,79.2,37.4,79.2,36.5z M82,48.7h-2.6V39H82V48.7z"/>
	<path class="st0" d="M93.6,43.8c0,1.6-0.4,2.8-1.3,3.7c-0.8,0.9-2,1.3-3.5,1.3c-0.9,0-1.8-0.2-2.5-0.6c-0.7-0.4-1.3-1-1.6-1.8
		c-0.4-0.8-0.6-1.7-0.6-2.7c0-1.6,0.4-2.8,1.2-3.7s2-1.3,3.5-1.3c0.9,0,1.8,0.2,2.5,0.6c0.7,0.4,1.3,1,1.6,1.7
		C93.4,41.9,93.6,42.8,93.6,43.8z M86.9,43.8c0,1,0.2,1.7,0.5,2.2s0.8,0.7,1.5,0.7s1.2-0.2,1.5-0.7s0.5-1.2,0.5-2.2
		s-0.2-1.7-0.5-2.2s-0.8-0.7-1.5-0.7s-1.2,0.2-1.5,0.7S86.9,42.9,86.9,43.8z M87.4,37.9v-0.2c1-1.2,1.7-2,2-2.6h3v0.2
		c-0.3,0.3-0.8,0.7-1.5,1.3s-1.3,1-1.7,1.3H87.4z"/>
	<path class="st0" d="M104.7,48.7h-2.6V43c0-0.7-0.1-1.2-0.4-1.6c-0.2-0.4-0.6-0.5-1.2-0.5c-0.7,0-1.3,0.2-1.6,0.7s-0.5,1.3-0.5,2.5
		v4.6h-2.6V39h2l0.4,1.2h0.1c0.3-0.5,0.7-0.8,1.2-1.1c0.5-0.2,1.1-0.4,1.8-0.4c1.1,0,2,0.3,2.6,0.9s0.9,1.5,0.9,2.6L104.7,48.7
		L104.7,48.7z"/>
	<path class="st0" d="M122.6,36v8.2c0,0.9-0.2,1.8-0.6,2.5s-1,1.2-1.8,1.6c-0.8,0.4-1.7,0.6-2.8,0.6c-1.6,0-2.9-0.4-3.8-1.3
		c-0.9-0.8-1.4-2-1.4-3.4V36h2.7v7.8c0,1,0.2,1.7,0.6,2.2c0.4,0.5,1,0.7,2,0.7c0.9,0,1.5-0.2,1.9-0.7s0.6-1.2,0.6-2.2V36H122.6z"/>
	<path class="st0" d="M134.5,48.7h-2.6V43c0-0.7-0.1-1.2-0.4-1.6c-0.2-0.4-0.6-0.5-1.2-0.5c-0.7,0-1.3,0.2-1.6,0.7s-0.5,1.3-0.5,2.5
		v4.6h-2.6V39h2l0.4,1.2h0.1c0.3-0.5,0.7-0.8,1.2-1.1c0.5-0.2,1.1-0.4,1.8-0.4c1.1,0,2,0.3,2.6,0.9s0.9,1.5,0.9,2.6L134.5,48.7
		L134.5,48.7z"/>
	<path class="st0" d="M137.1,36.5c0-0.9,0.5-1.3,1.4-1.3s1.4,0.4,1.4,1.3c0,0.4-0.1,0.7-0.4,1s-0.6,0.3-1.1,0.3
		C137.5,37.8,137.1,37.4,137.1,36.5z M139.8,48.7h-2.6V39h2.6V48.7z"/>
	<path class="st0" d="M144.9,48.7l-3.7-9.7h2.8l1.9,5.5c0.2,0.7,0.3,1.4,0.4,2h0.1c0-0.6,0.2-1.2,0.4-2l1.9-5.5h2.8l-3.7,9.7H144.9z
		"/>
	<path class="st0" d="M157.1,48.9c-1.6,0-2.8-0.4-3.7-1.3c-0.9-0.9-1.3-2.1-1.3-3.7c0-1.6,0.4-2.9,1.2-3.8c0.8-0.9,1.9-1.3,3.4-1.3
		c1.4,0,2.4,0.4,3.2,1.2s1.1,1.9,1.1,3.2v1.3h-6.3c0,0.8,0.3,1.3,0.7,1.8s1,0.6,1.8,0.6c0.6,0,1.1-0.1,1.7-0.2
		c0.5-0.1,1.1-0.3,1.6-0.6v2c-0.5,0.2-1,0.4-1.5,0.5C158.5,48.8,157.9,48.9,157.1,48.9z M156.7,40.7c-0.6,0-1,0.2-1.3,0.5
		c-0.3,0.4-0.5,0.9-0.5,1.5h3.7c0-0.7-0.2-1.2-0.5-1.5C157.7,40.9,157.3,40.7,156.7,40.7z"/>
	<path class="st0" d="M168.6,38.8c0.4,0,0.7,0,0.9,0.1l-0.2,2.5c-0.2-0.1-0.5-0.1-0.8-0.1c-0.8,0-1.5,0.2-2,0.7s-0.7,1-0.7,1.8v4.9
		h-2.6V39h2l0.4,1.6h0.1c0.3-0.5,0.7-1,1.2-1.3C167.5,39,168,38.8,168.6,38.8z"/>
	<path class="st0" d="M178.1,45.8c0,1-0.3,1.8-1,2.3s-1.7,0.8-3.1,0.8c-0.7,0-1.3,0-1.8-0.1s-1-0.2-1.4-0.4v-2.2
		c0.5,0.2,1,0.4,1.7,0.6s1.2,0.2,1.6,0.2c1,0,1.4-0.3,1.4-0.8c0-0.2-0.1-0.4-0.2-0.5s-0.3-0.3-0.7-0.4c-0.3-0.2-0.7-0.4-1.3-0.6
		c-0.7-0.3-1.3-0.6-1.6-0.9c-0.4-0.3-0.6-0.6-0.8-0.9s-0.2-0.8-0.2-1.3c0-0.9,0.3-1.5,1-2s1.6-0.7,2.8-0.7s2.3,0.3,3.4,0.8l-0.8,1.9
		c-0.5-0.2-0.9-0.4-1.4-0.5s-0.9-0.2-1.3-0.2c-0.8,0-1.2,0.2-1.2,0.6c0,0.2,0.1,0.4,0.4,0.6c0.3,0.2,0.8,0.4,1.7,0.8
		c0.8,0.3,1.3,0.6,1.7,0.9c0.4,0.3,0.6,0.6,0.8,0.9C178,44.9,178.1,45.4,178.1,45.8z"/>
	<path class="st0" d="M180,36.5c0-0.9,0.5-1.3,1.4-1.3s1.4,0.4,1.4,1.3c0,0.4-0.1,0.7-0.4,1s-0.6,0.3-1.1,0.3
		C180.5,37.8,180,37.4,180,36.5z M182.8,48.7h-2.6V39h2.6V48.7z"/>
	<path class="st0" d="M189.6,46.8c0.5,0,1-0.1,1.7-0.3v2c-0.7,0.3-1.5,0.4-2.4,0.4c-1.1,0-1.8-0.3-2.3-0.8s-0.7-1.3-0.7-2.4V41h-1.3
		v-1.1L186,39l0.8-2h1.7v2h2.7v2h-2.7v4.7c0,0.4,0.1,0.7,0.3,0.8C189,46.7,189.3,46.8,189.6,46.8z"/>
	<path class="st0" d="M199.4,48.7l-0.5-1.3h-0.1c-0.4,0.6-0.9,1-1.4,1.2s-1.1,0.3-1.8,0.3c-0.9,0-1.7-0.3-2.2-0.8s-0.8-1.3-0.8-2.3
		s0.4-1.8,1.1-2.3c0.7-0.5,1.8-0.8,3.3-0.8l1.7-0.1v-0.4c0-1-0.5-1.5-1.5-1.5c-0.8,0-1.7,0.2-2.7,0.7l-0.9-1.8
		c1.1-0.6,2.4-0.9,3.7-0.9c1.3,0,2.3,0.3,3,0.9c0.7,0.6,1,1.4,1,2.6v6.5C201.3,48.7,199.4,48.7,199.4,48.7z M198.7,44.2h-1
		c-0.8,0-1.3,0.2-1.7,0.4c-0.4,0.3-0.6,0.6-0.6,1.2c0,0.7,0.4,1.1,1.3,1.1c0.6,0,1.1-0.2,1.5-0.5c0.4-0.4,0.6-0.8,0.6-1.4v-0.8
		H198.7z"/>
	<path class="st0" d="M209.4,38.8c0.4,0,0.7,0,0.9,0.1l-0.2,2.5c-0.2-0.1-0.5-0.1-0.8-0.1c-0.8,0-1.5,0.2-2,0.7s-0.7,1-0.7,1.8v4.9
		H204V39h2l0.4,1.6h0.1c0.3-0.5,0.7-1,1.2-1.3C208.3,39,208.8,38.8,209.4,38.8z"/>
	<path class="st0" d="M212,36.5c0-0.9,0.5-1.3,1.4-1.3s1.4,0.4,1.4,1.3c0,0.4-0.1,0.7-0.4,1s-0.6,0.3-1.1,0.3
		C212.4,37.8,212,37.4,212,36.5z M214.7,48.7h-2.6V39h2.6V48.7z"/>
	<path class="st0" d="M223.7,48.7l-0.5-1.3h-0.1c-0.4,0.6-0.9,1-1.4,1.2s-1.1,0.3-1.8,0.3c-0.9,0-1.7-0.3-2.2-0.8s-0.8-1.3-0.8-2.3
		s0.4-1.8,1.1-2.3s1.8-0.8,3.3-0.8l1.7-0.1v-0.4c0-1-0.5-1.5-1.5-1.5c-0.8,0-1.7,0.2-2.7,0.7l-0.9-1.8c1.1-0.6,2.4-0.9,3.7-0.9
		c1.3,0,2.3,0.3,3,0.9c0.7,0.6,1,1.4,1,2.6v6.5C225.6,48.7,223.7,48.7,223.7,48.7z M222.9,44.2h-1c-0.8,0-1.3,0.2-1.7,0.4
		c-0.4,0.3-0.6,0.6-0.6,1.2c0,0.7,0.4,1.1,1.3,1.1c0.6,0,1.1-0.2,1.5-0.5c0.4-0.4,0.6-0.8,0.6-1.4L222.9,44.2L222.9,44.2z"/>
</g>
</svg>
