<?xml version="1.0" encoding="utf-8"?>
<!-- Generator: Adobe Illustrator 22.1.0, SVG Export Plug-In . SVG Version: 6.00 Build 0)  -->
<svg version="1.1" id="Layer_1" xmlns="http://www.w3.org/2000/svg" xmlns:xlink="http://www.w3.org/1999/xlink" x="0px" y="0px"
	 viewBox="0 0 59.1 67" style="enable-background:new 0 0 59.1 67;" xml:space="preserve">
<style type="text/css">
	.st0{fill:#333333;}
</style>
<g>
	<g>
		<path class="st0" d="M25.7,28.1H10.8v-6.3c0,0,0.4-4.2,6.7-4.2c6.4,0,8.2,3.4,8.2,4.4C25.7,22.9,25.7,28.1,25.7,28.1 M17.9,13
			C7.3,13,7.1,21.2,7.1,21.2v11.2h22.4l0.1-10.6C29.6,21.7,28.5,13,17.9,13z"/>
		<path class="st0" d="M34.9,28.8V13.1h6c0,0,4,0.4,4,7.1s-3.3,8.6-4.1,8.6C39.9,28.8,34.9,28.8,34.9,28.8 M49.3,20.6
			c0-11.2-7.8-11.4-7.8-11.4H30.9v23.5L41,32.9C41,32.9,49.3,31.8,49.3,20.6z"/>
		<path class="st0" d="M34.5,38.5h14.9v6.3c0,0-0.4,4.2-6.7,4.2c-6.4,0-8.2-3.4-8.2-4.4C34.5,43.7,34.5,38.5,34.5,38.5 M42.3,53.6
			c10.6,0,10.8-8.2,10.8-8.2V34.3H30.7l-0.1,10.6C30.6,44.9,31.7,53.6,42.3,53.6z"/>
		<path class="st0" d="M25.3,38.2v15.7h-6c0,0-4-0.4-4-7.1s3.3-8.6,4.1-8.6C20.4,38.2,25.3,38.2,25.3,38.2 M10.9,46.4
			c0,11.2,7.8,11.4,7.8,11.4h10.6V34.2l-10.1-0.1C19.2,34.1,10.9,35.2,10.9,46.4z"/>
	</g>
</g>
</svg>
