<?xml version="1.0" encoding="utf-8"?>
<!-- Generator: Adobe Illustrator 22.1.0, SVG Export Plug-In . SVG Version: 6.00 Build 0)  -->
<svg version="1.1" id="Layer_1" xmlns="http://www.w3.org/2000/svg" xmlns:xlink="http://www.w3.org/1999/xlink" x="0px" y="0px"
	 viewBox="0 0 290 67" style="enable-background:new 0 0 290 67;" xml:space="preserve">
<style type="text/css">
	.st0{fill:#333333;}
	.st1{fill-rule:evenodd;clip-rule:evenodd;fill:#333333;}
</style>
<g>
	<g>
		<path class="st0" d="M75.4,21.3c0,2.1-0.6,3.7-1.8,4.8c-1.2,1.1-2.9,1.7-5.2,1.7h-3.6V15.1h4c2.1,0,3.7,0.5,4.8,1.6
			C74.8,17.8,75.4,19.4,75.4,21.3z M72.6,21.4c0-2.7-1.2-4.1-3.6-4.1h-1.4v8.3h1.2C71.3,25.6,72.6,24.2,72.6,21.4z"/>
		<path class="st0" d="M77.7,15.6c0-0.9,0.5-1.3,1.4-1.3s1.4,0.4,1.4,1.3c0,0.4-0.1,0.7-0.4,1s-0.6,0.3-1.1,0.3
			C78.2,16.9,77.7,16.5,77.7,15.6z M80.4,27.8h-2.6v-9.7h2.6V27.8z"/>
		<path class="st0" d="M88.6,20.1h-2.3v7.7h-2.6v-7.7h-1.5v-1.3l1.5-0.7v-0.7c0-1.1,0.3-1.9,0.8-2.4s1.4-0.8,2.6-0.8
			c0.9,0,1.7,0.1,2.4,0.4l-0.7,1.9c-0.5-0.2-1-0.3-1.5-0.3c-0.4,0-0.6,0.1-0.8,0.3c-0.2,0.2-0.3,0.5-0.3,0.9v0.6h2.3V20.1z"/>
		<path class="st0" d="M97,27.8l-0.4-1.2h-0.1c-0.3,0.5-0.7,0.8-1.2,1S94.2,28,93.5,28c-1.1,0-2-0.3-2.6-0.9
			c-0.6-0.6-0.9-1.5-0.9-2.6v-6.3h2.6v5.7c0,0.7,0.1,1.2,0.4,1.6c0.2,0.4,0.6,0.5,1.2,0.5c0.7,0,1.3-0.2,1.6-0.7
			c0.3-0.5,0.5-1.3,0.5-2.5v-4.6H99v9.7H97z"/>
		<path class="st0" d="M108.5,24.9c0,1-0.3,1.8-1,2.3c-0.7,0.5-1.7,0.8-3.1,0.8c-0.7,0-1.3,0-1.8-0.1c-0.5-0.1-1-0.2-1.4-0.4v-2.2
			c0.5,0.2,1,0.4,1.7,0.6s1.2,0.2,1.6,0.2c1,0,1.4-0.3,1.4-0.8c0-0.2-0.1-0.4-0.2-0.5s-0.3-0.3-0.7-0.4c-0.3-0.2-0.7-0.4-1.3-0.6
			c-0.7-0.3-1.3-0.6-1.6-0.9c-0.4-0.3-0.6-0.6-0.8-0.9s-0.2-0.8-0.2-1.3c0-0.9,0.3-1.5,1-2c0.7-0.5,1.6-0.7,2.8-0.7
			c1.2,0,2.3,0.3,3.4,0.8l-0.8,1.9c-0.5-0.2-0.9-0.4-1.4-0.5s-0.9-0.2-1.3-0.2c-0.8,0-1.2,0.2-1.2,0.6c0,0.2,0.1,0.4,0.4,0.6
			c0.3,0.2,0.8,0.4,1.7,0.8c0.8,0.3,1.3,0.6,1.7,0.9c0.4,0.3,0.6,0.6,0.8,0.9C108.5,24,108.5,24.4,108.5,24.9z"/>
		<path class="st0" d="M110.5,15.6c0-0.9,0.5-1.3,1.4-1.3s1.4,0.4,1.4,1.3c0,0.4-0.1,0.7-0.4,1s-0.6,0.3-1.1,0.3
			C111,16.9,110.5,16.5,110.5,15.6z M113.3,27.8h-2.6v-9.7h2.6V27.8z"/>
		<path class="st0" d="M124.9,22.9c0,1.6-0.4,2.8-1.3,3.7c-0.8,0.9-2,1.3-3.5,1.3c-0.9,0-1.8-0.2-2.5-0.6c-0.7-0.4-1.3-1-1.6-1.8
			c-0.4-0.8-0.6-1.7-0.6-2.7c0-1.6,0.4-2.8,1.2-3.7c0.8-0.9,2-1.3,3.5-1.3c0.9,0,1.8,0.2,2.5,0.6c0.7,0.4,1.3,1,1.6,1.7
			C124.7,21,124.9,21.9,124.9,22.9z M118.1,22.9c0,1,0.2,1.7,0.5,2.2c0.3,0.5,0.8,0.7,1.5,0.7c0.7,0,1.2-0.2,1.5-0.7
			c0.3-0.5,0.5-1.2,0.5-2.2c0-1-0.2-1.7-0.5-2.2s-0.8-0.7-1.5-0.7c-0.7,0-1.2,0.2-1.5,0.7S118.1,22,118.1,22.9z M118.7,17v-0.2
			c1-1.2,1.7-2,2-2.6h3v0.2c-0.3,0.3-0.8,0.7-1.5,1.3c-0.7,0.6-1.3,1-1.7,1.3H118.7z"/>
		<path class="st0" d="M136,27.8h-2.6v-5.7c0-0.7-0.1-1.2-0.4-1.6c-0.2-0.4-0.6-0.5-1.2-0.5c-0.7,0-1.3,0.2-1.6,0.7
			c-0.3,0.5-0.5,1.3-0.5,2.5v4.6H127v-9.7h2l0.4,1.2h0.1c0.3-0.5,0.7-0.8,1.2-1.1c0.5-0.2,1.1-0.4,1.8-0.4c1.1,0,2,0.3,2.6,0.9
			s0.9,1.5,0.9,2.6V27.8z"/>
		<path class="st0" d="M148.9,17.2c-1,0-1.8,0.4-2.4,1.1c-0.6,0.8-0.8,1.8-0.8,3.2c0,2.8,1.1,4.2,3.2,4.2c0.9,0,2-0.2,3.2-0.7v2.3
			c-1,0.4-2.2,0.7-3.5,0.7c-1.8,0-3.3-0.6-4.2-1.7c-1-1.1-1.5-2.7-1.5-4.8c0-1.3,0.2-2.5,0.7-3.5c0.5-1,1.2-1.8,2.1-2.3
			c0.9-0.5,2-0.8,3.2-0.8c1.2,0,2.5,0.3,3.7,0.9l-0.9,2.2c-0.5-0.2-1-0.4-1.4-0.6C149.9,17.3,149.4,17.2,148.9,17.2z"/>
		<path class="st0" d="M161.5,27.8l-0.4-1.2h-0.1c-0.3,0.5-0.7,0.8-1.2,1s-1.1,0.4-1.8,0.4c-1.1,0-2-0.3-2.6-0.9
			c-0.6-0.6-0.9-1.5-0.9-2.6v-6.3h2.6v5.7c0,0.7,0.1,1.2,0.4,1.6c0.2,0.4,0.6,0.5,1.2,0.5c0.7,0,1.3-0.2,1.6-0.7
			c0.3-0.5,0.5-1.3,0.5-2.5v-4.6h2.6v9.7H161.5z"/>
		<path class="st0" d="M169,27.8h-2.6V14.3h2.6V27.8z"/>
		<path class="st0" d="M175.9,25.9c0.5,0,1-0.1,1.7-0.3v2c-0.7,0.3-1.5,0.4-2.4,0.4c-1.1,0-1.8-0.3-2.3-0.8
			c-0.5-0.5-0.7-1.3-0.7-2.4v-4.7h-1.3V19l1.5-0.9l0.8-2h1.7v2.1h2.7v2h-2.7v4.7c0,0.4,0.1,0.7,0.3,0.8
			C175.2,25.8,175.5,25.9,175.9,25.9z"/>
		<path class="st0" d="M186.4,27.8l-0.4-1.2h-0.1c-0.3,0.5-0.7,0.8-1.2,1s-1.1,0.4-1.8,0.4c-1.1,0-2-0.3-2.6-0.9
			c-0.6-0.6-0.9-1.5-0.9-2.6v-6.3h2.6v5.7c0,0.7,0.1,1.2,0.4,1.6c0.2,0.4,0.6,0.5,1.2,0.5c0.7,0,1.3-0.2,1.6-0.7
			c0.3-0.5,0.5-1.3,0.5-2.5v-4.6h2.6v9.7H186.4z"/>
		<path class="st0" d="M196.6,17.9c0.4,0,0.7,0,0.9,0.1l-0.2,2.5c-0.2-0.1-0.5-0.1-0.8-0.1c-0.8,0-1.5,0.2-2,0.7s-0.7,1-0.7,1.8v4.9
			h-2.6v-9.7h2l0.4,1.6h0.1c0.3-0.5,0.7-1,1.2-1.3C195.4,18.1,196,17.9,196.6,17.9z"/>
		<path class="st0" d="M205.4,27.8l-0.5-1.3h-0.1c-0.4,0.6-0.9,1-1.4,1.2c-0.5,0.2-1.1,0.3-1.8,0.3c-0.9,0-1.7-0.3-2.2-0.8
			c-0.5-0.5-0.8-1.3-0.8-2.3c0-1,0.4-1.8,1.1-2.3c0.7-0.5,1.8-0.8,3.3-0.8l1.7-0.1v-0.4c0-1-0.5-1.5-1.5-1.5c-0.8,0-1.7,0.2-2.7,0.7
			l-0.9-1.8c1.1-0.6,2.4-0.9,3.7-0.9c1.3,0,2.3,0.3,3,0.9c0.7,0.6,1,1.4,1,2.6v6.5H205.4z M204.6,23.3l-1,0c-0.8,0-1.3,0.2-1.7,0.4
			c-0.4,0.3-0.6,0.6-0.6,1.2c0,0.7,0.4,1.1,1.3,1.1c0.6,0,1.1-0.2,1.5-0.5c0.4-0.4,0.6-0.8,0.6-1.4V23.3z"/>
		<path class="st0" d="M212.6,27.8H210V14.3h2.6V27.8z"/>
		<path class="st0" d="M63.2,39h2.9l1.8,5.5c0.2,0.5,0.3,1,0.3,1.7h0.1c0.1-0.6,0.2-1.2,0.4-1.7l1.8-5.5h2.8L69.2,50
			c-0.4,1-0.9,1.8-1.6,2.3c-0.7,0.5-1.5,0.8-2.4,0.8c-0.5,0-0.9,0-1.3-0.1v-2.1c0.3,0.1,0.7,0.1,1,0.1c0.5,0,0.9-0.1,1.2-0.4
			s0.6-0.7,0.8-1.3l0.2-0.5L63.2,39z"/>
		<path class="st0" d="M86.9,48.7h-7.3V36h7.3v2.2h-4.6V41h4.3v2.2h-4.3v3.3h4.6V48.7z"/>
		<path class="st0" d="M91.3,43.8L88.2,39h3l1.9,3.1L95,39h3l-3.2,4.7l3.3,5h-3l-2-3.3l-2,3.3h-3L91.3,43.8z"/>
		<path class="st0" d="M103.7,46.8c0.5,0,1-0.1,1.7-0.3v2c-0.7,0.3-1.5,0.4-2.4,0.4c-1.1,0-1.8-0.3-2.3-0.8
			c-0.5-0.5-0.7-1.3-0.7-2.4V41h-1.3v-1.1l1.5-0.9l0.8-2h1.7V39h2.7v2h-2.7v4.7c0,0.4,0.1,0.7,0.3,0.8
			C103.1,46.7,103.3,46.8,103.7,46.8z"/>
		<path class="st0" d="M111.7,48.9c-1.6,0-2.8-0.4-3.7-1.3c-0.9-0.9-1.3-2.1-1.3-3.7c0-1.6,0.4-2.9,1.2-3.8c0.8-0.9,1.9-1.3,3.4-1.3
			c1.4,0,2.4,0.4,3.2,1.2c0.8,0.8,1.1,1.9,1.1,3.2v1.3h-6.3c0,0.8,0.3,1.3,0.7,1.8s1,0.6,1.8,0.6c0.6,0,1.1-0.1,1.7-0.2
			c0.5-0.1,1.1-0.3,1.6-0.6v2c-0.5,0.2-1,0.4-1.5,0.5C113.1,48.8,112.5,48.9,111.7,48.9z M111.3,40.7c-0.6,0-1,0.2-1.3,0.5
			c-0.3,0.4-0.5,0.9-0.5,1.5h3.7c0-0.7-0.2-1.2-0.5-1.5C112.3,40.9,111.9,40.7,111.3,40.7z"/>
		<path class="st0" d="M126.8,48.7h-2.6V43c0-0.7-0.1-1.2-0.4-1.6c-0.2-0.4-0.6-0.5-1.2-0.5c-0.7,0-1.3,0.2-1.6,0.7
			c-0.3,0.5-0.5,1.3-0.5,2.5v4.6h-2.6V39h2l0.4,1.2h0.1c0.3-0.5,0.7-0.8,1.2-1.1c0.5-0.2,1.1-0.4,1.8-0.4c1.1,0,2,0.3,2.6,0.9
			s0.9,1.5,0.9,2.6V48.7z"/>
		<path class="st0" d="M136.3,45.8c0,1-0.3,1.8-1,2.3c-0.7,0.5-1.7,0.8-3.1,0.8c-0.7,0-1.3,0-1.8-0.1c-0.5-0.1-1-0.2-1.4-0.4v-2.2
			c0.5,0.2,1,0.4,1.7,0.6s1.2,0.2,1.6,0.2c1,0,1.4-0.3,1.4-0.8c0-0.2-0.1-0.4-0.2-0.5s-0.3-0.3-0.7-0.4c-0.3-0.2-0.7-0.4-1.3-0.6
			c-0.7-0.3-1.3-0.6-1.6-0.9c-0.4-0.3-0.6-0.6-0.8-0.9s-0.2-0.8-0.2-1.3c0-0.9,0.3-1.5,1-2c0.7-0.5,1.6-0.7,2.8-0.7
			c1.2,0,2.3,0.3,3.4,0.8l-0.8,1.9c-0.5-0.2-0.9-0.4-1.4-0.5s-0.9-0.2-1.3-0.2c-0.8,0-1.2,0.2-1.2,0.6c0,0.2,0.1,0.4,0.4,0.6
			c0.3,0.2,0.8,0.4,1.7,0.8c0.8,0.3,1.3,0.6,1.7,0.9c0.4,0.3,0.6,0.6,0.8,0.9C136.2,44.9,136.3,45.4,136.3,45.8z"/>
		<path class="st0" d="M138.2,36.5c0-0.9,0.5-1.3,1.4-1.3s1.4,0.4,1.4,1.3c0,0.4-0.1,0.7-0.4,1s-0.6,0.3-1.1,0.3
			C138.7,37.8,138.2,37.4,138.2,36.5z M141,48.7h-2.6V39h2.6V48.7z"/>
		<path class="st0" d="M152.6,43.8c0,1.6-0.4,2.8-1.3,3.7c-0.8,0.9-2,1.3-3.5,1.3c-0.9,0-1.8-0.2-2.5-0.6c-0.7-0.4-1.3-1-1.6-1.8
			c-0.4-0.8-0.6-1.7-0.6-2.7c0-1.6,0.4-2.8,1.2-3.7c0.8-0.9,2-1.3,3.5-1.3c0.9,0,1.8,0.2,2.5,0.6c0.7,0.4,1.3,1,1.6,1.7
			C152.4,41.9,152.6,42.8,152.6,43.8z M145.9,43.8c0,1,0.2,1.7,0.5,2.2c0.3,0.5,0.8,0.7,1.5,0.7c0.7,0,1.2-0.2,1.5-0.7
			c0.3-0.5,0.5-1.2,0.5-2.2c0-1-0.2-1.7-0.5-2.2s-0.8-0.7-1.5-0.7c-0.7,0-1.2,0.2-1.5,0.7S145.9,42.9,145.9,43.8z M146.4,37.9v-0.2
			c1-1.2,1.7-2,2-2.6h3v0.2c-0.3,0.3-0.8,0.7-1.5,1.3c-0.7,0.6-1.3,1-1.7,1.3H146.4z"/>
		<path class="st0" d="M163.7,48.7h-2.6V43c0-0.7-0.1-1.2-0.4-1.6c-0.2-0.4-0.6-0.5-1.2-0.5c-0.7,0-1.3,0.2-1.6,0.7
			c-0.3,0.5-0.5,1.3-0.5,2.5v4.6h-2.6V39h2l0.4,1.2h0.1c0.3-0.5,0.7-0.8,1.2-1.1c0.5-0.2,1.1-0.4,1.8-0.4c1.1,0,2,0.3,2.6,0.9
			s0.9,1.5,0.9,2.6V48.7z"/>
		<path class="st0" d="M181.6,36v8.2c0,0.9-0.2,1.8-0.6,2.5s-1,1.2-1.8,1.6c-0.8,0.4-1.7,0.6-2.8,0.6c-1.6,0-2.9-0.4-3.8-1.3
			c-0.9-0.8-1.4-2-1.4-3.4V36h2.7v7.8c0,1,0.2,1.7,0.6,2.2c0.4,0.5,1,0.7,2,0.7c0.9,0,1.5-0.2,1.9-0.7c0.4-0.5,0.6-1.2,0.6-2.2V36
			H181.6z"/>
		<path class="st0" d="M193.5,48.7h-2.6V43c0-0.7-0.1-1.2-0.4-1.6c-0.2-0.4-0.6-0.5-1.2-0.5c-0.7,0-1.3,0.2-1.6,0.7
			c-0.3,0.5-0.5,1.3-0.5,2.5v4.6h-2.6V39h2l0.4,1.2h0.1c0.3-0.5,0.7-0.8,1.2-1.1c0.5-0.2,1.1-0.4,1.8-0.4c1.1,0,2,0.3,2.6,0.9
			s0.9,1.5,0.9,2.6V48.7z"/>
		<path class="st0" d="M196.1,36.5c0-0.9,0.5-1.3,1.4-1.3s1.4,0.4,1.4,1.3c0,0.4-0.1,0.7-0.4,1s-0.6,0.3-1.1,0.3
			C196.5,37.8,196.1,37.4,196.1,36.5z M198.8,48.7h-2.6V39h2.6V48.7z"/>
		<path class="st0" d="M203.9,48.7l-3.7-9.7h2.8l1.9,5.5c0.2,0.7,0.3,1.4,0.4,2h0.1c0-0.6,0.2-1.2,0.4-2l1.9-5.5h2.8l-3.7,9.7H203.9
			z"/>
		<path class="st0" d="M216.1,48.9c-1.6,0-2.8-0.4-3.7-1.3c-0.9-0.9-1.3-2.1-1.3-3.7c0-1.6,0.4-2.9,1.2-3.8c0.8-0.9,1.9-1.3,3.4-1.3
			c1.4,0,2.4,0.4,3.2,1.2c0.8,0.8,1.1,1.9,1.1,3.2v1.3h-6.3c0,0.8,0.3,1.3,0.7,1.8s1,0.6,1.8,0.6c0.6,0,1.1-0.1,1.7-0.2
			c0.5-0.1,1.1-0.3,1.6-0.6v2c-0.5,0.2-1,0.4-1.5,0.5C217.5,48.8,216.9,48.9,216.1,48.9z M215.7,40.7c-0.6,0-1,0.2-1.3,0.5
			c-0.3,0.4-0.5,0.9-0.5,1.5h3.7c0-0.7-0.2-1.2-0.5-1.5C216.7,40.9,216.3,40.7,215.7,40.7z"/>
		<path class="st0" d="M227.6,38.8c0.4,0,0.7,0,0.9,0.1l-0.2,2.5c-0.2-0.1-0.5-0.1-0.8-0.1c-0.8,0-1.5,0.2-2,0.7s-0.7,1-0.7,1.8v4.9
			h-2.6V39h2l0.4,1.6h0.1c0.3-0.5,0.7-1,1.2-1.3C226.5,39,227,38.8,227.6,38.8z"/>
		<path class="st0" d="M237.1,45.8c0,1-0.3,1.8-1,2.3c-0.7,0.5-1.7,0.8-3.1,0.8c-0.7,0-1.3,0-1.8-0.1c-0.5-0.1-1-0.2-1.4-0.4v-2.2
			c0.5,0.2,1,0.4,1.7,0.6s1.2,0.2,1.6,0.2c1,0,1.4-0.3,1.4-0.8c0-0.2-0.1-0.4-0.2-0.5s-0.3-0.3-0.7-0.4c-0.3-0.2-0.7-0.4-1.3-0.6
			c-0.7-0.3-1.3-0.6-1.6-0.9c-0.4-0.3-0.6-0.6-0.8-0.9s-0.2-0.8-0.2-1.3c0-0.9,0.3-1.5,1-2c0.7-0.5,1.6-0.7,2.8-0.7
			c1.2,0,2.3,0.3,3.4,0.8l-0.8,1.9c-0.5-0.2-0.9-0.4-1.4-0.5s-0.9-0.2-1.3-0.2c-0.8,0-1.2,0.2-1.2,0.6c0,0.2,0.1,0.4,0.4,0.6
			c0.3,0.2,0.8,0.4,1.7,0.8c0.8,0.3,1.3,0.6,1.7,0.9c0.4,0.3,0.6,0.6,0.8,0.9C237,44.9,237.1,45.4,237.1,45.8z"/>
		<path class="st0" d="M239,36.5c0-0.9,0.5-1.3,1.4-1.3s1.4,0.4,1.4,1.3c0,0.4-0.1,0.7-0.4,1s-0.6,0.3-1.1,0.3
			C239.5,37.8,239,37.4,239,36.5z M241.8,48.7h-2.6V39h2.6V48.7z"/>
		<path class="st0" d="M248.6,46.8c0.5,0,1-0.1,1.7-0.3v2c-0.7,0.3-1.5,0.4-2.4,0.4c-1.1,0-1.8-0.3-2.3-0.8
			c-0.5-0.5-0.7-1.3-0.7-2.4V41h-1.3v-1.1L245,39l0.8-2h1.7V39h2.7v2h-2.7v4.7c0,0.4,0.1,0.7,0.3,0.8
			C248,46.7,248.3,46.8,248.6,46.8z"/>
		<path class="st0" d="M258.4,48.7l-0.5-1.3h-0.1c-0.4,0.6-0.9,1-1.4,1.2c-0.5,0.2-1.1,0.3-1.8,0.3c-0.9,0-1.7-0.3-2.2-0.8
			c-0.5-0.5-0.8-1.3-0.8-2.3c0-1,0.4-1.8,1.1-2.3c0.7-0.5,1.8-0.8,3.3-0.8l1.7-0.1v-0.4c0-1-0.5-1.5-1.5-1.5c-0.8,0-1.7,0.2-2.7,0.7
			l-0.9-1.8c1.1-0.6,2.4-0.9,3.7-0.9c1.3,0,2.3,0.3,3,0.9c0.7,0.6,1,1.4,1,2.6v6.5H258.4z M257.7,44.2l-1,0c-0.8,0-1.3,0.2-1.7,0.4
			c-0.4,0.3-0.6,0.6-0.6,1.2c0,0.7,0.4,1.1,1.3,1.1c0.6,0,1.1-0.2,1.5-0.5c0.4-0.4,0.6-0.8,0.6-1.4V44.2z"/>
		<path class="st0" d="M268.4,38.8c0.4,0,0.7,0,0.9,0.1l-0.2,2.5c-0.2-0.1-0.5-0.1-0.8-0.1c-0.8,0-1.5,0.2-2,0.7s-0.7,1-0.7,1.8v4.9
			H263V39h2l0.4,1.6h0.1c0.3-0.5,0.7-1,1.2-1.3C267.3,39,267.8,38.8,268.4,38.8z"/>
		<path class="st0" d="M271,36.5c0-0.9,0.5-1.3,1.4-1.3s1.4,0.4,1.4,1.3c0,0.4-0.1,0.7-0.4,1s-0.6,0.3-1.1,0.3
			C271.4,37.8,271,37.4,271,36.5z M273.7,48.7h-2.6V39h2.6V48.7z"/>
		<path class="st0" d="M282.7,48.7l-0.5-1.3h-0.1c-0.4,0.6-0.9,1-1.4,1.2c-0.5,0.2-1.1,0.3-1.8,0.3c-0.9,0-1.7-0.3-2.2-0.8
			c-0.5-0.5-0.8-1.3-0.8-2.3c0-1,0.4-1.8,1.1-2.3c0.7-0.5,1.8-0.8,3.3-0.8l1.7-0.1v-0.4c0-1-0.5-1.5-1.5-1.5c-0.8,0-1.7,0.2-2.7,0.7
			l-0.9-1.8c1.1-0.6,2.4-0.9,3.7-0.9c1.3,0,2.3,0.3,3,0.9c0.7,0.6,1,1.4,1,2.6v6.5H282.7z M281.9,44.2l-1,0c-0.8,0-1.3,0.2-1.7,0.4
			c-0.4,0.3-0.6,0.6-0.6,1.2c0,0.7,0.4,1.1,1.3,1.1c0.6,0,1.1-0.2,1.5-0.5c0.4-0.4,0.6-0.8,0.6-1.4V44.2z"/>
	</g>
	<g>
		<path class="st1" d="M22.7,28.1H7.8v-6.3c0,0,0.4-4.2,6.7-4.2c6.4,0,8.2,3.4,8.2,4.4C22.7,22.9,22.7,28.1,22.7,28.1 M14.9,13
			C4.3,13,4.1,21.2,4.1,21.2v11.2h22.4l0.1-10.6C26.6,21.7,25.5,13,14.9,13z"/>
		<path class="st1" d="M31.9,28.8V13.1h6c0,0,4,0.4,4,7.1s-3.3,8.6-4.1,8.6C36.9,28.8,31.9,28.8,31.9,28.8 M46.3,20.6
			c0-11.2-7.8-11.4-7.8-11.4H27.9v23.5L38,32.9C38,32.9,46.3,31.8,46.3,20.6z"/>
		<path class="st1" d="M31.5,38.5h14.9v6.3c0,0-0.4,4.2-6.7,4.2c-6.4,0-8.2-3.4-8.2-4.4C31.5,43.7,31.5,38.5,31.5,38.5 M39.3,53.6
			c10.6,0,10.8-8.2,10.8-8.2V34.3H27.7l-0.1,10.6C27.6,44.9,28.7,53.6,39.3,53.6z"/>
		<path class="st1" d="M22.3,38.2v15.7h-6c0,0-4-0.4-4-7.1c0-6.7,3.3-8.6,4.1-8.6C17.4,38.2,22.3,38.2,22.3,38.2 M7.9,46.4
			c0,11.2,7.8,11.4,7.8,11.4h10.6V34.2l-10.1-0.1C16.2,34.1,7.9,35.2,7.9,46.4z"/>
	</g>
</g>
</svg>
