<?xml version="1.0" encoding="utf-8"?>
<!-- Generator: Adobe Illustrator 22.1.0, SVG Export Plug-In . SVG Version: 6.00 Build 0)  -->
<svg version="1.1" id="Layer_1" xmlns="http://www.w3.org/2000/svg" xmlns:xlink="http://www.w3.org/1999/xlink" x="0px" y="0px"
	 viewBox="0 0 283.7 111.9" style="enable-background:new 0 0 283.7 111.9;" xml:space="preserve">
<style type="text/css">
	.st0{fill:#FFFFFF;}
</style>
<g>
	<g>
		<path class="st0" d="M51.3,50.3H26.1V39.7c0,0,0.7-7,11.4-7c10.7,0,13.8,5.8,13.8,7.4C51.3,41.6,51.3,50.3,51.3,50.3 M38.2,24.8
			C20.3,24.8,20,38.7,20,38.7v18.8h37.7l0.2-18C57.8,39.5,56.1,24.8,38.2,24.8z"/>
		<path class="st0" d="M66.9,51.6V25.1h10.1c0,0,6.7,0.7,6.7,12s-5.5,14.5-7,14.5C75.1,51.6,66.9,51.6,66.9,51.6 M91.1,37.7
			c0-18.8-13.2-19.2-13.2-19.2H60v39.7l17.1,0.2C77.1,58.4,91.1,56.5,91.1,37.7z"/>
		<path class="st0" d="M66.1,67.9h25.2v10.6c0,0-0.7,7-11.4,7c-10.7,0-13.8-5.8-13.8-7.4C66.1,76.6,66.1,67.9,66.1,67.9 M79.2,93.4
			c17.9,0,18.2-13.9,18.2-13.9V60.7H59.7l-0.2,18C59.6,78.7,61.4,93.4,79.2,93.4z"/>
		<path class="st0" d="M50.6,67.3v26.5H40.5c0,0-6.7-0.7-6.7-12c0-11.3,5.5-14.5,7-14.5C42.3,67.3,50.6,67.3,50.6,67.3 M26.3,81.2
			c0,18.8,13.2,19.2,13.2,19.2h17.9V60.7l-17.1-0.2C40.3,60.5,26.3,62.4,26.3,81.2z"/>
	</g>
</g>
<g>
	<path class="st0" d="M124.9,26.3c0,2.1-0.6,3.7-1.8,4.8c-1.2,1.1-2.9,1.7-5.1,1.7h-3.6V20.1h3.9c2.1,0,3.6,0.5,4.8,1.6
		C124.4,22.8,124.9,24.3,124.9,26.3z M122.2,26.3c0-2.7-1.2-4.1-3.6-4.1h-1.4v8.2h1.1C120.9,30.5,122.2,29.1,122.2,26.3z"/>
	<path class="st0" d="M127.2,20.6c0-0.9,0.5-1.3,1.4-1.3s1.4,0.4,1.4,1.3c0,0.4-0.1,0.7-0.4,1c-0.2,0.2-0.6,0.3-1.1,0.3
		C127.7,21.9,127.2,21.4,127.2,20.6z M130,32.7h-2.6v-9.6h2.6V32.7z"/>
	<path class="st0" d="M138,25h-2.3v7.6h-2.6V25h-1.4v-1.3l1.4-0.7v-0.7c0-1.1,0.3-1.9,0.8-2.4c0.5-0.5,1.4-0.8,2.6-0.8
		c0.9,0,1.7,0.1,2.4,0.4l-0.7,1.9c-0.5-0.2-1-0.2-1.5-0.2c-0.4,0-0.6,0.1-0.8,0.3c-0.2,0.2-0.2,0.5-0.2,0.8v0.6h2.3V25z"/>
	<path class="st0" d="M146.3,32.7l-0.4-1.2h-0.1c-0.3,0.4-0.7,0.8-1.2,1c-0.5,0.2-1.1,0.4-1.8,0.4c-1.1,0-2-0.3-2.6-0.9
		c-0.6-0.6-0.9-1.5-0.9-2.6v-6.3h2.6v5.6c0,0.7,0.1,1.2,0.4,1.6c0.2,0.3,0.6,0.5,1.2,0.5c0.7,0,1.3-0.2,1.6-0.7s0.5-1.3,0.5-2.4
		v-4.5h2.6v9.6H146.3z"/>
	<path class="st0" d="M157.8,29.8c0,1-0.3,1.7-1,2.3c-0.7,0.5-1.7,0.8-3.1,0.8c-0.7,0-1.3,0-1.8-0.1c-0.5-0.1-1-0.2-1.4-0.4v-2.2
		c0.5,0.2,1,0.4,1.6,0.6c0.6,0.2,1.1,0.2,1.6,0.2c1,0,1.4-0.3,1.4-0.8c0-0.2-0.1-0.4-0.2-0.5c-0.1-0.1-0.3-0.3-0.7-0.4
		s-0.7-0.4-1.2-0.6c-0.7-0.3-1.3-0.6-1.6-0.9c-0.3-0.3-0.6-0.6-0.8-0.9c-0.2-0.3-0.2-0.8-0.2-1.3c0-0.9,0.3-1.5,1-2s1.6-0.7,2.8-0.7
		c1.2,0,2.3,0.3,3.4,0.8l-0.8,1.9c-0.5-0.2-0.9-0.4-1.4-0.5c-0.4-0.1-0.8-0.2-1.3-0.2c-0.8,0-1.2,0.2-1.2,0.6c0,0.2,0.1,0.4,0.4,0.6
		c0.2,0.2,0.8,0.4,1.6,0.8c0.8,0.3,1.3,0.6,1.7,0.9s0.6,0.6,0.8,0.9C157.7,28.9,157.8,29.4,157.8,29.8z"/>
	<path class="st0" d="M159.7,20.6c0-0.9,0.5-1.3,1.4-1.3s1.4,0.4,1.4,1.3c0,0.4-0.1,0.7-0.4,1c-0.2,0.2-0.6,0.3-1.1,0.3
		C160.2,21.9,159.7,21.4,159.7,20.6z M162.5,32.7h-2.6v-9.6h2.6V32.7z"/>
	<path class="st0" d="M174,27.9c0,1.6-0.4,2.8-1.2,3.7s-2,1.3-3.4,1.3c-0.9,0-1.7-0.2-2.4-0.6c-0.7-0.4-1.2-1-1.6-1.7
		s-0.6-1.6-0.6-2.6c0-1.6,0.4-2.8,1.2-3.7s2-1.3,3.5-1.3c0.9,0,1.7,0.2,2.4,0.6c0.7,0.4,1.2,1,1.6,1.7S174,26.9,174,27.9z
		 M167.3,27.9c0,1,0.2,1.7,0.5,2.2s0.8,0.7,1.5,0.7c0.7,0,1.2-0.2,1.5-0.7s0.5-1.2,0.5-2.2c0-1-0.2-1.7-0.5-2.1
		c-0.3-0.5-0.8-0.7-1.5-0.7c-0.7,0-1.2,0.2-1.5,0.7C167.5,26.2,167.3,26.9,167.3,27.9z M167.9,22v-0.2c1-1.1,1.7-2,2-2.6h2.9v0.2
		c-0.3,0.3-0.8,0.7-1.5,1.3c-0.7,0.6-1.3,1-1.7,1.3H167.9z"/>
	<path class="st0" d="M185,32.7h-2.6v-5.6c0-0.7-0.1-1.2-0.4-1.6s-0.6-0.5-1.2-0.5c-0.7,0-1.3,0.2-1.6,0.7s-0.5,1.3-0.5,2.4v4.5
		h-2.6v-9.6h2l0.4,1.2h0.1c0.3-0.5,0.7-0.8,1.2-1.1s1.1-0.4,1.8-0.4c1.1,0,2,0.3,2.5,0.9s0.9,1.5,0.9,2.6V32.7z"/>
	<path class="st0" d="M197.8,22.2c-1,0-1.8,0.4-2.3,1.1c-0.6,0.8-0.8,1.8-0.8,3.2c0,2.8,1.1,4.2,3.2,4.2c0.9,0,2-0.2,3.2-0.7v2.2
		c-1,0.4-2.2,0.6-3.5,0.6c-1.8,0-3.2-0.6-4.2-1.7c-1-1.1-1.5-2.7-1.5-4.8c0-1.3,0.2-2.5,0.7-3.4c0.5-1,1.2-1.7,2.1-2.3
		c0.9-0.5,1.9-0.8,3.1-0.8c1.2,0,2.4,0.3,3.7,0.9l-0.9,2.2c-0.5-0.2-0.9-0.4-1.4-0.6C198.8,22.2,198.3,22.2,197.8,22.2z"/>
	<path class="st0" d="M210.3,32.7l-0.4-1.2h-0.1c-0.3,0.4-0.7,0.8-1.2,1c-0.5,0.2-1.1,0.4-1.8,0.4c-1.1,0-2-0.3-2.6-0.9
		c-0.6-0.6-0.9-1.5-0.9-2.6v-6.3h2.6v5.6c0,0.7,0.1,1.2,0.4,1.6c0.2,0.3,0.6,0.5,1.2,0.5c0.7,0,1.3-0.2,1.6-0.7s0.5-1.3,0.5-2.4
		v-4.5h2.6v9.6H210.3z"/>
	<path class="st0" d="M217.7,32.7h-2.6V19.3h2.6V32.7z"/>
	<path class="st0" d="M224.5,30.8c0.5,0,1-0.1,1.7-0.3v2c-0.7,0.3-1.5,0.4-2.4,0.4c-1,0-1.8-0.3-2.3-0.8c-0.5-0.5-0.7-1.3-0.7-2.4
		V25h-1.3v-1.1l1.4-0.9l0.8-2h1.7v2h2.7v2h-2.7v4.6c0,0.4,0.1,0.6,0.3,0.8S224.2,30.8,224.5,30.8z"/>
	<path class="st0" d="M234.9,32.7l-0.4-1.2h-0.1c-0.3,0.4-0.7,0.8-1.2,1c-0.5,0.2-1.1,0.4-1.8,0.4c-1.1,0-2-0.3-2.6-0.9
		c-0.6-0.6-0.9-1.5-0.9-2.6v-6.3h2.6v5.6c0,0.7,0.1,1.2,0.4,1.6c0.2,0.3,0.6,0.5,1.2,0.5c0.7,0,1.3-0.2,1.6-0.7s0.5-1.3,0.5-2.4
		v-4.5h2.6v9.6H234.9z"/>
	<path class="st0" d="M245.1,22.9c0.4,0,0.7,0,0.9,0.1l-0.2,2.5c-0.2-0.1-0.5-0.1-0.8-0.1c-0.8,0-1.5,0.2-2,0.6
		c-0.5,0.4-0.7,1-0.7,1.8v4.9h-2.6v-9.6h2l0.4,1.6h0.1c0.3-0.5,0.7-1,1.2-1.3C243.9,23.1,244.5,22.9,245.1,22.9z"/>
	<path class="st0" d="M253.8,32.7l-0.5-1.3h-0.1c-0.4,0.6-0.9,0.9-1.4,1.2c-0.5,0.2-1.1,0.3-1.8,0.3c-0.9,0-1.6-0.3-2.2-0.8
		s-0.8-1.3-0.8-2.3c0-1,0.4-1.8,1.1-2.3c0.7-0.5,1.8-0.8,3.2-0.8l1.7-0.1v-0.4c0-1-0.5-1.5-1.5-1.5c-0.8,0-1.7,0.2-2.7,0.7l-0.9-1.8
		c1.1-0.6,2.3-0.9,3.7-0.9c1.3,0,2.3,0.3,3,0.8c0.7,0.6,1,1.4,1,2.6v6.4H253.8z M253,28.2l-1,0c-0.8,0-1.3,0.2-1.7,0.4
		c-0.4,0.3-0.6,0.6-0.6,1.2c0,0.7,0.4,1.1,1.3,1.1c0.6,0,1.1-0.2,1.5-0.5c0.4-0.3,0.5-0.8,0.5-1.4V28.2z"/>
	<path class="st0" d="M260.9,32.7h-2.6V19.3h2.6V32.7z"/>
	<path class="st0" d="M112.9,49.1h2.9l1.8,5.4c0.2,0.5,0.3,1,0.3,1.7h0.1c0.1-0.6,0.2-1.1,0.4-1.7l1.8-5.4h2.8l-4.1,10.8
		c-0.4,1-0.9,1.8-1.6,2.3c-0.7,0.5-1.5,0.7-2.4,0.7c-0.5,0-0.9,0-1.3-0.1v-2.1c0.3,0.1,0.7,0.1,1,0.1c0.5,0,0.9-0.1,1.2-0.4
		c0.3-0.3,0.6-0.7,0.8-1.3l0.2-0.5L112.9,49.1z"/>
	<path class="st0" d="M136.3,58.7h-7.2V46.1h7.2v2.2h-4.6v2.8h4.3v2.2h-4.3v3.2h4.6V58.7z"/>
	<path class="st0" d="M140.7,53.8l-3.1-4.7h3l1.9,3.1l1.9-3.1h3l-3.1,4.7l3.3,4.9h-3l-2-3.3l-2,3.3h-3L140.7,53.8z"/>
	<path class="st0" d="M153,56.8c0.5,0,1-0.1,1.7-0.3v2c-0.7,0.3-1.5,0.4-2.4,0.4c-1,0-1.8-0.3-2.3-0.8c-0.5-0.5-0.7-1.3-0.7-2.4V51
		H148v-1.1l1.4-0.9l0.8-2h1.7v2h2.7v2h-2.7v4.6c0,0.4,0.1,0.6,0.3,0.8S152.6,56.8,153,56.8z"/>
	<path class="st0" d="M160.9,58.9c-1.5,0-2.8-0.4-3.6-1.3c-0.9-0.9-1.3-2.1-1.3-3.6c0-1.6,0.4-2.9,1.2-3.7c0.8-0.9,1.9-1.3,3.3-1.3
		c1.4,0,2.4,0.4,3.2,1.2c0.8,0.8,1.1,1.8,1.1,3.2v1.3h-6.2c0,0.7,0.2,1.3,0.7,1.7c0.4,0.4,1,0.6,1.7,0.6c0.6,0,1.1-0.1,1.6-0.2
		c0.5-0.1,1.1-0.3,1.6-0.6v2c-0.5,0.2-0.9,0.4-1.5,0.5C162.3,58.8,161.7,58.9,160.9,58.9z M160.6,50.8c-0.6,0-1,0.2-1.3,0.5
		c-0.3,0.4-0.5,0.9-0.5,1.5h3.7c0-0.6-0.2-1.1-0.5-1.5C161.6,50.9,161.1,50.8,160.6,50.8z"/>
	<path class="st0" d="M175.9,58.7h-2.6v-5.6c0-0.7-0.1-1.2-0.4-1.6s-0.6-0.5-1.2-0.5c-0.7,0-1.3,0.2-1.6,0.7s-0.5,1.3-0.5,2.4v4.5
		H167v-9.6h2l0.4,1.2h0.1c0.3-0.5,0.7-0.8,1.2-1.1s1.1-0.4,1.8-0.4c1.1,0,2,0.3,2.5,0.9s0.9,1.5,0.9,2.6V58.7z"/>
	<path class="st0" d="M185.3,55.8c0,1-0.3,1.7-1,2.3c-0.7,0.5-1.7,0.8-3.1,0.8c-0.7,0-1.3,0-1.8-0.1c-0.5-0.1-1-0.2-1.4-0.4v-2.2
		c0.5,0.2,1,0.4,1.6,0.6c0.6,0.2,1.1,0.2,1.6,0.2c1,0,1.4-0.3,1.4-0.8c0-0.2-0.1-0.4-0.2-0.5c-0.1-0.1-0.3-0.3-0.7-0.4
		s-0.7-0.4-1.2-0.6c-0.7-0.3-1.3-0.6-1.6-0.9c-0.3-0.3-0.6-0.6-0.8-0.9c-0.2-0.3-0.2-0.8-0.2-1.3c0-0.9,0.3-1.5,1-2s1.6-0.7,2.8-0.7
		c1.2,0,2.3,0.3,3.4,0.8l-0.8,1.9c-0.5-0.2-0.9-0.4-1.4-0.5c-0.4-0.1-0.8-0.2-1.3-0.2c-0.8,0-1.2,0.2-1.2,0.6c0,0.2,0.1,0.4,0.4,0.6
		c0.2,0.2,0.8,0.4,1.6,0.8c0.8,0.3,1.3,0.6,1.7,0.9s0.6,0.6,0.8,0.9C185.2,54.9,185.3,55.4,185.3,55.8z"/>
	<path class="st0" d="M187.2,46.6c0-0.9,0.5-1.3,1.4-1.3s1.4,0.4,1.4,1.3c0,0.4-0.1,0.7-0.4,1c-0.2,0.2-0.6,0.3-1.1,0.3
		C187.7,47.9,187.2,47.4,187.2,46.6z M189.9,58.7h-2.6v-9.6h2.6V58.7z"/>
	<path class="st0" d="M201.4,53.9c0,1.6-0.4,2.8-1.2,3.7s-2,1.3-3.4,1.3c-0.9,0-1.7-0.2-2.4-0.6c-0.7-0.4-1.2-1-1.6-1.7
		s-0.6-1.6-0.6-2.6c0-1.6,0.4-2.8,1.2-3.7s2-1.3,3.5-1.3c0.9,0,1.7,0.2,2.4,0.6c0.7,0.4,1.2,1,1.6,1.7S201.4,52.9,201.4,53.9z
		 M194.8,53.9c0,1,0.2,1.7,0.5,2.2s0.8,0.7,1.5,0.7c0.7,0,1.2-0.2,1.5-0.7s0.5-1.2,0.5-2.2c0-1-0.2-1.7-0.5-2.1
		c-0.3-0.5-0.8-0.7-1.5-0.7c-0.7,0-1.2,0.2-1.5,0.7C194.9,52.2,194.8,52.9,194.8,53.9z M195.3,48v-0.2c1-1.1,1.7-2,2-2.6h2.9v0.2
		c-0.3,0.3-0.8,0.7-1.5,1.3c-0.7,0.6-1.3,1-1.7,1.3H195.3z"/>
	<path class="st0" d="M212.5,58.7h-2.6v-5.6c0-0.7-0.1-1.2-0.4-1.6s-0.6-0.5-1.2-0.5c-0.7,0-1.3,0.2-1.6,0.7s-0.5,1.3-0.5,2.4v4.5
		h-2.6v-9.6h2l0.4,1.2h0.1c0.3-0.5,0.7-0.8,1.2-1.1s1.1-0.4,1.8-0.4c1.1,0,2,0.3,2.5,0.9s0.9,1.5,0.9,2.6V58.7z"/>
	<path class="st0" d="M124.7,72.1v8.1c0,0.9-0.2,1.7-0.6,2.4c-0.4,0.7-1,1.2-1.8,1.6c-0.8,0.4-1.7,0.6-2.8,0.6
		c-1.6,0-2.9-0.4-3.8-1.2c-0.9-0.8-1.3-2-1.3-3.4v-8.1h2.7v7.7c0,1,0.2,1.7,0.6,2.1c0.4,0.5,1,0.7,1.9,0.7c0.9,0,1.5-0.2,1.9-0.7
		c0.4-0.5,0.6-1.2,0.6-2.1v-7.7H124.7z"/>
	<path class="st0" d="M136.5,84.7h-2.6v-5.6c0-0.7-0.1-1.2-0.4-1.6s-0.6-0.5-1.2-0.5c-0.7,0-1.3,0.2-1.6,0.7s-0.5,1.3-0.5,2.4v4.5
		h-2.6v-9.6h2l0.4,1.2h0.1c0.3-0.5,0.7-0.8,1.2-1.1s1.1-0.4,1.8-0.4c1.1,0,2,0.3,2.5,0.9s0.9,1.5,0.9,2.6V84.7z"/>
	<path class="st0" d="M139.1,72.6c0-0.9,0.5-1.3,1.4-1.3s1.4,0.4,1.4,1.3c0,0.4-0.1,0.7-0.4,1c-0.2,0.2-0.6,0.3-1.1,0.3
		C139.5,73.9,139.1,73.4,139.1,72.6z M141.8,84.7h-2.6v-9.6h2.6V84.7z"/>
	<path class="st0" d="M146.8,84.7l-3.7-9.6h2.7l1.9,5.5c0.2,0.7,0.3,1.4,0.4,2h0.1c0-0.6,0.2-1.2,0.4-2l1.8-5.5h2.7l-3.7,9.6H146.8z
		"/>
	<path class="st0" d="M158.9,84.9c-1.5,0-2.8-0.4-3.6-1.3c-0.9-0.9-1.3-2.1-1.3-3.6c0-1.6,0.4-2.9,1.2-3.7c0.8-0.9,1.9-1.3,3.3-1.3
		c1.4,0,2.4,0.4,3.2,1.2c0.8,0.8,1.1,1.8,1.1,3.2v1.3h-6.2c0,0.7,0.2,1.3,0.7,1.7c0.4,0.4,1,0.6,1.7,0.6c0.6,0,1.1-0.1,1.6-0.2
		c0.5-0.1,1.1-0.3,1.6-0.6v2c-0.5,0.2-0.9,0.4-1.5,0.5C160.3,84.8,159.7,84.9,158.9,84.9z M158.6,76.8c-0.6,0-1,0.2-1.3,0.5
		c-0.3,0.4-0.5,0.9-0.5,1.5h3.7c0-0.6-0.2-1.1-0.5-1.5C159.6,76.9,159.1,76.8,158.6,76.8z"/>
	<path class="st0" d="M170.4,74.9c0.4,0,0.7,0,0.9,0.1l-0.2,2.5c-0.2-0.1-0.5-0.1-0.8-0.1c-0.8,0-1.5,0.2-2,0.6
		c-0.5,0.4-0.7,1-0.7,1.8v4.9H165v-9.6h2l0.4,1.6h0.1c0.3-0.5,0.7-1,1.2-1.3C169.2,75.1,169.8,74.9,170.4,74.9z"/>
	<path class="st0" d="M179.7,81.8c0,1-0.3,1.7-1,2.3c-0.7,0.5-1.7,0.8-3.1,0.8c-0.7,0-1.3,0-1.8-0.1c-0.5-0.1-1-0.2-1.4-0.4v-2.2
		c0.5,0.2,1,0.4,1.6,0.6c0.6,0.2,1.1,0.2,1.6,0.2c1,0,1.4-0.3,1.4-0.8c0-0.2-0.1-0.4-0.2-0.5c-0.1-0.1-0.3-0.3-0.7-0.4
		s-0.7-0.4-1.2-0.6c-0.7-0.3-1.3-0.6-1.6-0.9c-0.3-0.3-0.6-0.6-0.8-0.9c-0.2-0.3-0.2-0.8-0.2-1.3c0-0.9,0.3-1.5,1-2s1.6-0.7,2.8-0.7
		c1.2,0,2.3,0.3,3.4,0.8l-0.8,1.9c-0.5-0.2-0.9-0.4-1.4-0.5c-0.4-0.1-0.8-0.2-1.3-0.2c-0.8,0-1.2,0.2-1.2,0.6c0,0.2,0.1,0.4,0.4,0.6
		c0.2,0.2,0.8,0.4,1.6,0.8c0.8,0.3,1.3,0.6,1.7,0.9s0.6,0.6,0.8,0.9C179.6,80.9,179.7,81.4,179.7,81.8z"/>
	<path class="st0" d="M181.6,72.6c0-0.9,0.5-1.3,1.4-1.3s1.4,0.4,1.4,1.3c0,0.4-0.1,0.7-0.4,1c-0.2,0.2-0.6,0.3-1.1,0.3
		C182.1,73.9,181.6,73.4,181.6,72.6z M184.4,84.7h-2.6v-9.6h2.6V84.7z"/>
	<path class="st0" d="M191.2,82.8c0.5,0,1-0.1,1.7-0.3v2c-0.7,0.3-1.5,0.4-2.4,0.4c-1,0-1.8-0.3-2.3-0.8c-0.5-0.5-0.7-1.3-0.7-2.4
		V77h-1.3v-1.1l1.4-0.9l0.8-2h1.7v2h2.7v2H190v4.6c0,0.4,0.1,0.6,0.3,0.8S190.8,82.8,191.2,82.8z"/>
	<path class="st0" d="M200.9,84.7l-0.5-1.3h-0.1c-0.4,0.6-0.9,0.9-1.4,1.2c-0.5,0.2-1.1,0.3-1.8,0.3c-0.9,0-1.6-0.3-2.2-0.8
		s-0.8-1.3-0.8-2.3c0-1,0.4-1.8,1.1-2.3c0.7-0.5,1.8-0.8,3.2-0.8l1.7-0.1v-0.4c0-1-0.5-1.5-1.5-1.5c-0.8,0-1.7,0.2-2.7,0.7l-0.9-1.8
		c1.1-0.6,2.3-0.9,3.7-0.9c1.3,0,2.3,0.3,3,0.8c0.7,0.6,1,1.4,1,2.6v6.4H200.9z M200.1,80.2l-1,0c-0.8,0-1.3,0.2-1.7,0.4
		c-0.4,0.3-0.6,0.6-0.6,1.2c0,0.7,0.4,1.1,1.3,1.1c0.6,0,1.1-0.2,1.5-0.5c0.4-0.3,0.5-0.8,0.5-1.4V80.2z"/>
	<path class="st0" d="M210.8,74.9c0.4,0,0.7,0,0.9,0.1l-0.2,2.5c-0.2-0.1-0.5-0.1-0.8-0.1c-0.8,0-1.5,0.2-2,0.6
		c-0.5,0.4-0.7,1-0.7,1.8v4.9h-2.6v-9.6h2l0.4,1.6h0.1c0.3-0.5,0.7-1,1.2-1.3C209.6,75.1,210.2,74.9,210.8,74.9z"/>
	<path class="st0" d="M213.3,72.6c0-0.9,0.5-1.3,1.4-1.3s1.4,0.4,1.4,1.3c0,0.4-0.1,0.7-0.4,1c-0.2,0.2-0.6,0.3-1.1,0.3
		C213.8,73.9,213.3,73.4,213.3,72.6z M216,84.7h-2.6v-9.6h2.6V84.7z"/>
	<path class="st0" d="M224.9,84.7l-0.5-1.3h-0.1c-0.4,0.6-0.9,0.9-1.4,1.2c-0.5,0.2-1.1,0.3-1.8,0.3c-0.9,0-1.6-0.3-2.2-0.8
		s-0.8-1.3-0.8-2.3c0-1,0.4-1.8,1.1-2.3c0.7-0.5,1.8-0.8,3.2-0.8l1.7-0.1v-0.4c0-1-0.5-1.5-1.5-1.5c-0.8,0-1.7,0.2-2.7,0.7l-0.9-1.8
		c1.1-0.6,2.3-0.9,3.7-0.9c1.3,0,2.3,0.3,3,0.8c0.7,0.6,1,1.4,1,2.6v6.4H224.9z M224.1,80.2l-1,0c-0.8,0-1.3,0.2-1.7,0.4
		c-0.4,0.3-0.6,0.6-0.6,1.2c0,0.7,0.4,1.1,1.3,1.1c0.6,0,1.1-0.2,1.5-0.5c0.4-0.3,0.5-0.8,0.5-1.4V80.2z"/>
</g>
</svg>
